<svg id="Component_4_1" data-name="Component 4 – 1" xmlns="http://www.w3.org/2000/svg" width="790" height="644.161" viewBox="0 0 790 644.161">
  <g id="undraw_Notify_re_65on" transform="translate(0 131.953)">
    <path id="Path_77" data-name="Path 77" d="M925.563,704.589,903,636.5s24.818,24.818,24.818,45.182l-4.455-47.091s12.727,17.182,11.455,43.273S925.563,704.589,925.563,704.589Z" transform="translate(-205 -193.896)" fill="#e6e6e6"/>
    <path id="Path_78" data-name="Path 78" d="M441.021,642.589,419,576.135s24.221,24.221,24.221,44.1l-4.347-45.959S451.3,591.04,450.053,616.5,441.021,642.589,441.021,642.589Z" transform="translate(-205 -193.896)" fill="#e6e6e6"/>
    <path id="Path_79" data-name="Path 79" d="M784.726,673.255c.038,43.715-86.665,30.268-192.809,30.36S400.381,717.3,400.344,673.587s86.633-53.3,192.777-53.389S784.688,629.54,784.726,673.255Z" transform="translate(-205 -193.896)" fill="#ccc"/>
    <rect id="Rectangle_15" data-name="Rectangle 15" width="790" height="2" transform="translate(0 509.693)" fill="#3f3d56"/>
    <path id="Path_80" data-name="Path 80" d="M505.336,420.322H491.459l-6.6-53.525h20.481Z" fill="#a0616a"/>
    <path id="Path_81" data-name="Path 81" d="M480.006,416.357h28.3v16.851H464.7v-1.542a15.309,15.309,0,0,1,15.309-15.31Z" fill="#2f2e41"/>
    <path id="Path_82" data-name="Path 82" d="M607.336,499.322H593.459l-6.6-53.525h20.481Z" fill="#a0616a"/>
    <path id="Path_83" data-name="Path 83" d="M582.006,495.357h28.3v16.851H566.7v-1.542a15.309,15.309,0,0,1,15.309-15.31Z" fill="#2f2e41"/>
    <path id="Path_84" data-name="Path 84" d="M876.345,534.205a10.316,10.316,0,0,0-2.9-15.551l-32.23-131.293-20.608,8.867,38.335,126.949a10.372,10.372,0,0,0,17.4,11.028Z" transform="translate(-205 -193.896)" fill="#a0616a"/>
    <path id="Path_85" data-name="Path 85" d="M851.208,268.86a11.382,11.382,0,0,0-17.415,1.152l-49.885,5.727,7.589,19.241,45.368-8.491a11.444,11.444,0,0,0,14.344-17.63Z" transform="translate(-205 -193.896)" fill="#a0616a"/>
    <path id="Path_86" data-name="Path 86" d="M769,520.589l21.768,163.374,27.093-5.578S813.877,559.4,827.424,545.06,810,505.589,810,505.589Z" transform="translate(-205 -193.896)" fill="#2f2e41"/>
    <path id="Path_87" data-name="Path 87" d="M778,475.589l-10,15s-77-32-77,19-4.406,85.609-6,88,18.438,8.594,28,7c0,0,11.8-82.219,11-87,0,0,75.534,37.033,89.877,33.846S831.609,536.964,834,530.589s-1-57-1-57L785.19,459Z" transform="translate(-205 -193.896)" fill="#2f2e41"/>
    <path id="Path_88" data-name="Path 88" d="M779.349,385.529l-2.85-3.42s-31.924-71.828-19.382-91.21,67.268-22.233,68.978-21.092-4.085,15.943-.094,22.784c0,0-42.394,9.191-45.244,10.331s21.966,43.274,21.966,43.274l-2.85,25.653Z" transform="translate(-205 -193.896)" fill="#ccc"/>
    <path id="Path_89" data-name="Path 89" d="M835.216,350.185s-29.644,3.42-30.784,3.42-1.71-7.411-1.71-7.411L776.5,382.108S763.58,486.3,767,484.589s66.505,8.112,67.075,3.551-.57-27.363,1.14-28.5,29.643-71.828,29.643-71.828-2.85-14.822-12.541-19.952S835.216,350.185,835.216,350.185Z" transform="translate(-205 -193.896)" fill="#ccc"/>
    <path id="Path_90" data-name="Path 90" d="M855.738,378.118l9.121,9.691s13.552,111.36,6.141,114.78-22,3-22,3L834.645,452.8Z" transform="translate(-205 -193.896)" fill="#ccc"/>
    <circle id="Ellipse_22" data-name="Ellipse 22" cx="26.239" cy="26.239" r="26.239" transform="translate(575.491 96.759)" fill="#a0616a"/>
    <path id="Path_91" data-name="Path 91" d="M800.573,320.988c-.354-5.444-7.223-5.631-12.679-5.683s-11.978.143-15.065-4.355c-2.04-2.973-1.65-7.1.035-10.288s4.458-5.639,7.185-8c7.041-6.089,14.3-12.129,22.752-16.027s18.36-5.472,27.128-2.344c10.77,3.843,25.329,23.626,26.586,34.992s-3.285,22.952-10.942,31.446-25.182,5.066-36.211,8.088c6.7-9.49,2.285-26.733-8.456-31.164Z" transform="translate(-205 -193.896)" fill="#2f2e41"/>
    <circle id="Ellipse_23" data-name="Ellipse 23" cx="62.989" cy="62.989" r="62.989" transform="translate(298.733 340.516)" fill="#6c63ff"/>
    <path id="Path_92" data-name="Path 92" d="M524.656,529.935A45.16,45.16,0,0,1,483.4,503.146l-99.95-225.088a59.83,59.83,0,1,1,111.87-41.864L567.7,471.606a45.08,45.08,0,0,1-43.04,58.33Z" transform="translate(-205 -193.896)" fill="#6c63ff"/>
  </g>
  <text id="Cart_is_Empty" data-name="Cart is Empty" transform="translate(248)" fill="#6c63ff" font-size="70" font-family="SegoeUI, Segoe UI"><tspan x="0" y="76">Cart is Empty</tspan></text>
</svg>
