<svg id="Component_2_1" data-name="Component 2 – 1" xmlns="http://www.w3.org/2000/svg" xmlns:xlink="http://www.w3.org/1999/xlink" width="830.32" height="884.06" viewBox="0 0 830.32 884.06">
  <defs>
    <linearGradient id="linear-gradient" x1="0.5" y1="1" x2="0.5" gradientUnits="objectBoundingBox">
      <stop offset="0" stop-color="gray" stop-opacity="0.251"/>
      <stop offset="0.54" stop-color="gray" stop-opacity="0.122"/>
      <stop offset="1" stop-color="gray" stop-opacity="0.102"/>
    </linearGradient>
    <clipPath id="clip-path">
      <rect id="_Rectangle_" data-name="&lt;Rectangle&gt;" width="143.79" height="96.93" transform="translate(202.54 262.18)" fill="#fff"/>
    </clipPath>
    <clipPath id="clip-path-2">
      <rect id="_Rectangle_2" data-name="&lt;Rectangle&gt;" width="143.79" height="96.93" transform="translate(202.54 468.88)" fill="#fff"/>
    </clipPath>
    <linearGradient id="linear-gradient-6" x1="0.518" y1="1.092" x2="0.518" y2="-0.251" xlink:href="#linear-gradient"/>
    <linearGradient id="linear-gradient-7" x1="0.6" y1="0.66" x2="0.6" y2="0.086" xlink:href="#linear-gradient"/>
    <linearGradient id="linear-gradient-8" x1="0.5" y1="1" x2="0.5" gradientUnits="objectBoundingBox">
      <stop offset="0" stop-color="#b3b3b3" stop-opacity="0.251"/>
      <stop offset="0.54" stop-color="#b3b3b3" stop-opacity="0.102"/>
      <stop offset="1" stop-color="#b3b3b3" stop-opacity="0.051"/>
    </linearGradient>
    <linearGradient id="linear-gradient-9" x1="0.5" y1="0.999" x2="0.5" gradientUnits="objectBoundingBox">
      <stop offset="0" stop-opacity="0.122"/>
      <stop offset="0.55" stop-opacity="0.09"/>
      <stop offset="1" stop-opacity="0.02"/>
    </linearGradient>
    <linearGradient id="linear-gradient-10" x1="0.5" y1="1" x2="0.5" y2="0" xlink:href="#linear-gradient-9"/>
  </defs>
  <g id="undraw_file_searching_duff" transform="translate(0 105.172)">
    <g id="Group_13" data-name="Group 13" opacity="0.5">
      <rect id="Rectangle_104" data-name="Rectangle 104" width="448.44" height="602.6" transform="translate(154.15 130.21)" fill="url(#linear-gradient)"/>
    </g>
    <rect id="Rectangle_105" data-name="Rectangle 105" width="434.43" height="581.58" transform="translate(159.99 138.39)" fill="#f2f2f2"/>
    <rect id="Rectangle_106" data-name="Rectangle 106" width="149.48" height="4.67" transform="translate(193.86 162.91)" fill="#e0e0e0"/>
    <rect id="Rectangle_107" data-name="Rectangle 107" width="149.48" height="4.67" transform="translate(193.86 183.93)" fill="#6c63ff" opacity="0.7"/>
    <rect id="Rectangle_108" data-name="Rectangle 108" width="149.48" height="4.67" transform="translate(365.53 162.91)" fill="#e0e0e0"/>
    <rect id="Rectangle_109" data-name="Rectangle 109" width="149.48" height="4.67" transform="translate(388.88 296.05)" fill="#e0e0e0"/>
    <rect id="Rectangle_110" data-name="Rectangle 110" width="149.48" height="4.67" transform="translate(392.39 308.89)" fill="#e0e0e0"/>
    <rect id="Rectangle_111" data-name="Rectangle 111" width="149.48" height="4.67" transform="translate(399.4 321.74)" fill="#e0e0e0"/>
    <rect id="Rectangle_112" data-name="Rectangle 112" width="149.48" height="4.67" transform="translate(388.88 502.75)" fill="#e0e0e0"/>
    <rect id="Rectangle_113" data-name="Rectangle 113" width="149.48" height="4.67" transform="translate(392.39 515.6)" fill="#e0e0e0"/>
    <rect id="Rectangle_114" data-name="Rectangle 114" width="149.48" height="4.67" transform="translate(399.4 528.44)" fill="#e0e0e0"/>
    <g id="Group_14" data-name="Group 14" opacity="0.5">
      <rect id="Rectangle_115" data-name="Rectangle 115" width="158.82" height="161.16" transform="translate(195.03 248.16)" fill="url(#linear-gradient)"/>
    </g>
    <rect id="Rectangle_116" data-name="Rectangle 116" width="156.32" height="154.15" transform="translate(196.03 251.67)" fill="#f5f5f5"/>
    <g id="Group_15" data-name="Group 15" opacity="0.5">
      <rect id="Rectangle_117" data-name="Rectangle 117" width="145.8" height="100.43" transform="translate(201.54 261.01)" fill="url(#linear-gradient)"/>
    </g>
    <rect id="_Rectangle_3" data-name="&lt;Rectangle&gt;" width="143.79" height="96.93" transform="translate(202.54 262.18)" fill="#fff"/>
    <g id="Group_16" data-name="Group 16" clip-path="url(#clip-path)">
      <path id="Path_838" data-name="Path 838" d="M190.35,355.61l36.21-56.06,15.18,24.52,32.7-33.86,28.03,33.86,24.52-50.21,63.06,100.43-204.37-7.01Z" fill="#6c63ff" opacity="0.4"/>
      <circle id="Ellipse_115" data-name="Ellipse 115" cx="10.51" cy="10.51" r="10.51" transform="translate(207.87 265.68)" fill="#6c63ff" opacity="0.4"/>
    </g>
    <g id="Group_17" data-name="Group 17" opacity="0.5">
      <rect id="Rectangle_118" data-name="Rectangle 118" width="158.82" height="161.16" transform="translate(195.03 454.87)" fill="url(#linear-gradient)"/>
    </g>
    <rect id="Rectangle_119" data-name="Rectangle 119" width="156.32" height="154.15" transform="translate(196.03 458.37)" fill="#f5f5f5"/>
    <g id="Group_18" data-name="Group 18" opacity="0.5">
      <rect id="Rectangle_120" data-name="Rectangle 120" width="145.8" height="100.43" transform="translate(201.54 467.72)" fill="url(#linear-gradient)"/>
    </g>
    <rect id="_Rectangle_4" data-name="&lt;Rectangle&gt;" width="143.79" height="96.93" transform="translate(202.54 468.88)" fill="#fff"/>
    <g id="Group_19" data-name="Group 19" clip-path="url(#clip-path-2)">
      <path id="Path_839" data-name="Path 839" d="M190.35,562.31l36.21-56.06,15.18,24.53,32.7-33.87,28.03,33.87,24.52-50.22,63.06,100.43-204.37-7Z" fill="#bdbdbd" opacity="0.4"/>
      <circle id="Ellipse_116" data-name="Ellipse 116" cx="10.51" cy="10.51" r="10.51" transform="translate(207.87 472.39)" fill="#bdbdbd" opacity="0.4"/>
    </g>
    <g id="Group_20" data-name="Group 20" opacity="0.5">
      <rect id="Rectangle_121" data-name="Rectangle 121" width="602.6" height="448.44" transform="translate(219.986 691.478) rotate(-78.76)" fill="url(#linear-gradient-6)"/>
    </g>
    <rect id="Rectangle_122" data-name="Rectangle 122" width="581.58" height="434.43" transform="translate(228.214 680.02) rotate(-78.76)" fill="#fff"/>
    <rect id="Rectangle_123" data-name="Rectangle 123" width="308.31" height="4.67" transform="translate(367.319 142.078) rotate(11.24)" fill="#e0e0e0"/>
    <rect id="Rectangle_124" data-name="Rectangle 124" width="308.31" height="4.67" transform="translate(281.275 575.059) rotate(11.24)" fill="#e0e0e0"/>
    <rect id="Rectangle_126" data-name="Rectangle 126" width="88.75" height="4.67" transform="translate(270.797 627.747) rotate(11.24)" fill="#6c63ff" opacity="0.7"/>
    <rect id="Rectangle_127" data-name="Rectangle 127" width="154.15" height="4.67" transform="translate(362.075 168.428) rotate(11.24)" fill="#6c63ff" opacity="0.7"/>
    <rect id="Rectangle_128" data-name="Rectangle 128" width="277.94" height="4.67" transform="translate(356.851 194.77) rotate(11.24)" fill="#e0e0e0"/>
    <rect id="Rectangle_129" data-name="Rectangle 129" width="67.73" height="4.67" transform="translate(351.611 221.12) rotate(11.24)" fill="#3ad29f" opacity="0.7"/>
    <rect id="Rectangle_130" data-name="Rectangle 130" width="308.31" height="4.67" transform="translate(346.38 247.465) rotate(11.24)" fill="#e0e0e0"/>
    <g id="Group_21" data-name="Group 21" opacity="0.5">
      <rect id="Rectangle_131" data-name="Rectangle 131" width="158.82" height="276.77" transform="translate(342.067 514.518) rotate(-78.76)" fill="url(#linear-gradient-7)"/>
    </g>
    <rect id="Rectangle_132" data-name="Rectangle 132" width="273.27" height="155.32" transform="translate(375.561 355.231) rotate(11.24)" fill="#fff"/>
    <rect id="Rectangle_133" data-name="Rectangle 133" width="308.31" height="4.67" transform="translate(341.145 273.818) rotate(11.24)" fill="#e0e0e0"/>
    <path id="Path_840" data-name="Path 840" d="M880.45,410.55a155.89,155.89,0,0,0-223.11-1.68c-59,59.48-60,156.33-2.29,217.07A155.89,155.89,0,0,0,854.95,648L967.64,765.21a7.59,7.59,0,0,0,10.73.21l28.08-27a7.59,7.59,0,0,0,.21-10.73L894,610.49a155.9,155.9,0,0,0-13.55-199.94ZM845.35,599a111.5,111.5,0,1,1,3.1-157.66A111.5,111.5,0,0,1,845.35,599Z" transform="translate(-179 -60.54)" fill="url(#linear-gradient-8)"/>
    <path id="Path_841" data-name="Path 841" d="M685.49,487.6c-12.54,0-12.56,19.49,0,19.49S698.05,487.6,685.49,487.6Z" transform="translate(-179 -60.54)" fill="url(#linear-gradient-9)"/>
    <path id="Path_842" data-name="Path 842" d="M772.9,425.17c-33.75-.76-64.46,16.17-80.79,41.73-5.33,8.34,9.8,15.71,15.1,7.41,13.52-21.16,39.21-34.6,67-33.9,29.12.73,55.62,17.39,69.65,40.51,5.32,8.77,19.27.8,14-7.92C840.8,445,807.76,426,772.9,425.17Z" transform="translate(-179 -60.54)" fill="url(#linear-gradient-10)"/>
    <text id="library" transform="matrix(0.978, 0.208, -0.208, 0.978, 404.389, 378.162)" fill="#707070" font-size="55" font-family="SegoeUI, Segoe UI"><tspan x="0" y="59">LIBRARY</tspan></text>
    <path id="Path_843" data-name="Path 843" d="M875.3,402.583a143.448,143.448,0,0,0-208.644-1.608c-55.175,56.936-56.11,149.643-2.141,207.784,48.956,52.738,127.93,61.655,186.939,21.107L956.829,742.071a6.983,6.983,0,0,0,10.034.2l26.259-25.845a7.387,7.387,0,0,0,.2-10.271l-105.383-112.2c41.7-58.483,36.376-139.169-12.634-191.377ZM842.477,582.9a102.582,102.582,0,0,1-147.431-2.971c-39.911-42.492-38.613-110.055,2.9-150.908a102.582,102.582,0,0,1,147.431,2.964c39.915,42.493,38.617,110.062-2.9,150.916Z" transform="translate(-179 -60.54)" fill="#6c63ff"/>
    <path id="Path_844" data-name="Path 844" d="M697.72,481.67c-12.54,0-12.56,19.49,0,19.49S710.28,481.67,697.72,481.67Z" transform="translate(-179 -60.54)" fill="#6c63ff"/>
    <path id="Path_845" data-name="Path 845" d="M785.13,419.25c-33.75-.76-64.46,16.17-80.79,41.73-5.33,8.34,9.8,15.71,15.1,7.41,13.52-21.16,39.21-34.6,67-33.9,29.12.73,55.62,17.39,69.65,40.51,5.32,8.77,19.27.8,14-7.92C853,439,820,420,785.13,419.25Z" transform="translate(-179 -60.54)" fill="#6c63ff"/>
    <rect id="Rectangle_138" data-name="Rectangle 138" width="3.5" height="19.85" transform="translate(121.45 663.91)" fill="#47e6b1"/>
    <rect id="Rectangle_139" data-name="Rectangle 139" width="3.5" height="19.85" transform="translate(133.13 672.08) rotate(90)" fill="#47e6b1"/>
    <path id="Path_846" data-name="Path 846" d="M750.87,68.49a4.29,4.29,0,0,1-2.39-5.19,2.059,2.059,0,0,0,.09-.48h0a2.15,2.15,0,0,0-3.87-1.43h0a2.061,2.061,0,0,0-.24.42,4.29,4.29,0,0,1-5.19,2.39,2.06,2.06,0,0,0-.48-.09h0A2.15,2.15,0,0,0,737.38,68h0a2.058,2.058,0,0,0,.42.24,4.29,4.29,0,0,1,2.39,5.19,2.059,2.059,0,0,0-.09.48h0a2.15,2.15,0,0,0,3.9,1.41h0a2.058,2.058,0,0,0,.24-.42,4.29,4.29,0,0,1,5.19-2.39,2.061,2.061,0,0,0,.48.09h0a2.15,2.15,0,0,0,1.43-3.87h0a2.061,2.061,0,0,0-.47-.24Z" transform="translate(-179 -60.54)" fill="#4d8af0"/>
    <path id="Path_847" data-name="Path 847" d="M316.44,215.64a4.29,4.29,0,0,1-2.39-5.19,2.061,2.061,0,0,0,.09-.48h0a2.15,2.15,0,0,0-3.87-1.43h0a2.06,2.06,0,0,0-.24.42,4.29,4.29,0,0,1-5.19,2.39,2.06,2.06,0,0,0-.48-.09h0a2.15,2.15,0,0,0-1.43,3.87h0a2.06,2.06,0,0,0,.42.24,4.29,4.29,0,0,1,2.39,5.19,2.059,2.059,0,0,0-.09.48h0a2.15,2.15,0,0,0,3.87,1.43h0a2.06,2.06,0,0,0,.24-.42,4.29,4.29,0,0,1,5.19-2.39,2.061,2.061,0,0,0,.48.09h0a2.15,2.15,0,0,0,1.43-3.87h0A2.06,2.06,0,0,0,316.44,215.64Z" transform="translate(-179 -60.54)" fill="#fdd835"/>
    <path id="Path_848" data-name="Path 848" d="M934.22,822.9a4.29,4.29,0,0,1-2.39-5.19,2.055,2.055,0,0,0,.09-.48h0a2.15,2.15,0,0,0-3.87-1.43h0a2.061,2.061,0,0,0-.24.42,4.29,4.29,0,0,1-5.19,2.39,2.058,2.058,0,0,0-.48-.09h0a2.15,2.15,0,0,0-1.43,3.87h0a2.06,2.06,0,0,0,.42.24,4.29,4.29,0,0,1,2.39,5.19,2.059,2.059,0,0,0-.09.48h0a2.15,2.15,0,0,0,3.87,1.43h0a2.058,2.058,0,0,0,.24-.42,4.29,4.29,0,0,1,5.19-2.39,2.062,2.062,0,0,0,.48.09h0a2.15,2.15,0,0,0,1.43-3.87h0A2.059,2.059,0,0,0,934.22,822.9Z" transform="translate(-179 -60.54)" fill="#fdd835"/>
    <circle id="Ellipse_117" data-name="Ellipse 117" cx="7.01" cy="7.01" r="7.01" transform="translate(314.14 68.32)" fill="#f55f44"/>
    <circle id="Ellipse_118" data-name="Ellipse 118" cx="7.01" cy="7.01" r="7.01" transform="translate(816.3 155.9)" fill="#f55f44"/>
    <circle id="Ellipse_119" data-name="Ellipse 119" cx="7.01" cy="7.01" r="7.01" transform="translate(776.6 364.94)" fill="#4d8af0"/>
    <circle id="Ellipse_120" data-name="Ellipse 120" cx="7.01" cy="7.01" r="7.01" transform="translate(0 21.6)" fill="#47e6b1" opacity="0.5"/>
    <text id="no_results_found" data-name="no results found" transform="matrix(0.978, 0.208, -0.208, 0.978, 286.661, 573.808)" fill="#707070" font-size="40" font-family="SegoeUI, Segoe UI"><tspan x="0" y="43">no results found</tspan></text>
  </g>
  <ellipse id="Ellipse_261" data-name="Ellipse 261" cx="35.989" cy="39.989" rx="35.989" ry="39.989" transform="translate(379.182 296.333)" fill="#6c63ff"/>
  <path id="Path_1655" data-name="Path 1655" d="M463.84,446.4c-10.425,0-19.873-7.887-24.113-20.128L381.309,257.144c-5.273-15.265-3.528-33.031,4.532-46.132s21.105-19.377,33.876-16.3,23.159,15.008,26.977,30.973L489,402.569a41.935,41.935,0,0,1-3.983,30.066c-4.961,8.643-12.817,13.749-21.173,13.761Z" transform="matrix(0.995, -0.105, 0.105, 0.995, -140.088, -141.645)" fill="#6c63ff"/>
</svg>
