<svg id="Component_5_1" data-name="Component 5 – 1" xmlns="http://www.w3.org/2000/svg" width="641.963" height="598" viewBox="0 0 641.963 598">
  <g id="undraw_Reading_book_re_kqpk" transform="translate(0 0)">
    <path id="Path_93" data-name="Path 93" d="M607.641,742.658c-3.121,0-6.273-.049-9.368-.146l.07-2.247c4.443.138,8.978.177,13.442.115l.031,2.25Q609.732,742.657,607.641,742.658Zm17.711-.522-.132-2.245c4.45-.263,8.957-.632,13.4-1.1l.235,2.236c-4.473.469-9.014.841-13.5,1.105Zm-40.6-.35c-4.487-.344-9.022-.794-13.478-1.341l.275-2.232c4.422.542,8.922.99,13.375,1.33Zm67.533-2.474-.337-2.223c4.421-.671,8.877-1.45,13.239-2.317l.438,2.206c-4.4.873-8.884,1.659-13.34,2.334Zm-94.412-.823c-4.433-.751-8.907-1.615-13.3-2.568l.477-2.2c4.358.947,8.8,1.8,13.2,2.548Zm120.973-4.456-.54-2.184c4.34-1.073,8.7-2.26,12.972-3.525l.639,2.157c-4.3,1.275-8.7,2.47-13.071,3.551Zm-147.438-1.29c-4.348-1.157-8.724-2.429-13.006-3.783l.678-2.144c4.249,1.343,8.592,2.606,12.906,3.752Zm173.4-6.413-.738-2.124c4.211-1.464,8.447-3.047,12.592-4.706l.835,2.089c-4.175,1.671-8.444,3.266-12.688,4.741ZM505.55,724.568c-4.223-1.552-8.472-3.227-12.629-4.978l.873-2.074c4.125,1.738,8.341,3.4,12.532,4.941Zm224.374-8.288-.932-2.048c4.045-1.838,8.11-3.8,12.083-5.831l1.024,2c-4,2.046-8.1,4.023-12.175,5.875Zm-249.385-2.243c-4.059-1.934-8.134-3.992-12.109-6.116l1.06-1.984c3.946,2.108,7.989,4.15,12.017,6.07Zm273.455-10.061-1.114-1.953c3.879-2.213,7.751-4.54,11.506-6.916l1.2,1.9c-3.784,2.394-7.685,4.74-11.594,6.968Zm-297.377-2.72c-3.861-2.3-7.728-4.719-11.492-7.2l1.238-1.878c3.735,2.461,7.572,4.864,11.4,7.143Zm320.237-11.742-1.287-1.843c3.652-2.552,7.3-5.224,10.833-7.942l1.371,1.784C784.208,684.251,780.535,686.944,776.854,689.514Zm-342.875-3.168c-3.631-2.637-7.258-5.4-10.781-8.213l1.4-1.758c3.5,2.791,7.1,5.533,10.7,8.149Zm364.334-13.324-1.45-1.72c3.4-2.872,6.792-5.866,10.071-8.9l1.526,1.652c-3.3,3.055-6.717,6.071-10.148,8.966ZM412.8,669.438c-3.382-2.961-6.741-6.042-9.985-9.156l1.558-1.623c3.22,3.091,6.553,6.148,9.909,9.088Zm405.388-14.8-1.6-1.58c3.138-3.18,6.243-6.471,9.225-9.781l1.672,1.5c-3.005,3.336-6.133,6.651-9.3,9.855Zm-424.928-3.95c-3.1-3.262-6.167-6.635-9.107-10.022l1.7-1.474c2.918,3.362,5.959,6.708,9.038,9.945Zm443.06-16.174-1.738-1.428c2.835-3.45,5.626-7.01,8.3-10.584l1.8,1.347C841.994,627.445,839.181,631.034,836.324,634.51Zm-460.808-4.271c-2.786-3.521-5.53-7.155-8.154-10.8l1.826-1.314c2.605,3.619,5.328,7.227,8.093,10.722Zm477.038-17.431-1.861-1.263c2.509-3.694,4.966-7.5,7.3-11.3l1.918,1.178c-2.357,3.834-4.833,7.666-7.361,11.387Zm-492.843-4.532c-2.451-3.758-4.85-7.624-7.131-11.5l1.938-1.142c2.264,3.841,4.645,7.679,7.077,11.407ZM866.744,589.7l-1.968-1.087c2.16-3.908,4.258-7.922,6.238-11.93l2.017,1c-2,4.038-4.112,8.082-6.288,12.02Zm-520.761-4.73c-2.1-3.965-4.132-8.034-6.046-12.092l2.034-.96c1.9,4.027,3.918,8.065,6,12Zm532.775-19.59-2.061-.9c1.793-4.094,3.514-8.287,5.117-12.461l2.1.806c-1.615,4.207-3.35,8.432-5.156,12.558Zm-544.3-4.854c-1.725-4.139-3.376-8.374-4.908-12.587l2.115-.769c1.52,4.182,3.159,8.383,4.87,12.491Zm554.032-20.49-2.135-.707c1.4-4.23,2.729-8.554,3.937-12.852l2.166.609c-1.218,4.331-2.554,8.689-3.968,12.951ZM325.21,535.11c-1.338-4.287-2.6-8.667-3.738-13.019l2.176-.571c1.133,4.319,2.381,8.666,3.71,12.92Zm570.607-21.141-2.191-.51c1.007-4.336,1.928-8.764,2.737-13.159l2.212.406c-.815,4.43-1.743,8.891-2.758,13.262Zm-577.478-5.055c-.938-4.394-1.787-8.87-2.523-13.307l2.219-.369c.731,4.4,1.574,8.846,2.5,13.206ZM900.72,487.336l-2.23-.305c.605-4.406,1.116-8.9,1.519-13.354l2.241.2c-.406,4.491-.921,9.017-1.53,13.457ZM313.906,482.2c-.531-4.453-.966-8.989-1.3-13.48l2.244-.165c.326,4.459.758,8.959,1.285,13.379Zm589.26-21.832-2.247-.1c.2-4.458.3-8.979.3-13.437h2.25c0,4.493-.1,9.048-.3,13.539Zm-591.237-5.177c-.077-2.758-.116-5.572-.116-8.363q0-2.6.044-5.184l2.25.04q-.045,2.567-.044,5.144c0,2.769.04,5.563.115,8.3ZM901.2,443.69c-.046-4.46-.2-8.981-.443-13.437l2.245-.125c.249,4.491.4,9.045.447,13.539ZM314.641,428.254l-2.245-.141c.281-4.495.668-9.035,1.151-13.494l2.236.242c-.479,4.426-.863,8.931-1.142,13.392Zm585.068-11.4c-.449-4.435-1.008-8.922-1.661-13.338l2.226-.328c.657,4.449,1.22,8.971,1.674,13.439ZM317.534,401.536l-2.223-.344c.689-4.45,1.49-8.936,2.38-13.334l2.2.446c-.883,4.365-1.678,8.816-2.361,13.232ZM895.777,390.27c-.858-4.388-1.826-8.806-2.878-13.129l2.186-.532c1.06,4.356,2.035,8.808,2.9,13.229ZM322.863,375.2l-2.182-.547c1.092-4.357,2.3-8.75,3.6-13.059l2.154.647C325.148,366.513,323.947,370.873,322.863,375.2ZM889.42,364.158c-1.254-4.283-2.625-8.592-4.074-12.808l2.127-.732c1.461,4.248,2.843,8.591,4.107,12.907ZM330.607,349.423l-2.122-.746c1.495-4.253,3.109-8.526,4.8-12.7l2.086.844c-1.676,4.142-3.278,8.383-4.761,12.6Zm550.077-10.68c-1.641-4.14-3.4-8.3-5.224-12.35l2.052-.924c1.84,4.086,3.611,8.273,5.264,12.444ZM340.7,324.455l-2.044-.939c1.879-4.092,3.879-8.2,5.944-12.2l2,1.031C344.553,316.322,342.569,320.394,340.7,324.455Zm528.97-10.164c-2.013-3.971-4.147-7.951-6.34-11.827l1.957-1.108c2.211,3.906,4.36,7.916,6.389,11.918ZM353.052,300.535l-1.95-1.123c2.244-3.9,4.611-7.8,7.035-11.593l1.9,1.211c-2.405,3.767-4.754,7.638-6.981,11.5Zm503.406-9.6c-2.377-3.784-4.866-7.554-7.4-11.205l1.848-1.282c2.552,3.679,5.061,7.478,7.455,11.291ZM367.532,277.86l-1.839-1.3c2.593-3.678,5.3-7.344,8.061-10.9l1.777,1.379C372.8,270.572,370.105,274.21,367.532,277.86Zm473.623-8.99c-2.711-3.551-5.534-7.081-8.393-10.491l1.725-1.445c2.88,3.437,5.725,6.993,8.457,10.571ZM384.014,256.611l-1.712-1.459c2.91-3.418,5.944-6.821,9.016-10.113l1.644,1.535C389.913,249.841,386.9,253.218,384.014,256.611ZM823.9,248.278c-3.022-3.289-6.157-6.55-9.316-9.689l1.586-1.6c3.183,3.164,6.341,6.449,9.386,9.763Zm-421.545-11.32-1.573-1.608c3.217-3.147,6.546-6.258,9.893-9.247l1.5,1.678c-3.323,2.966-6.626,6.053-9.819,9.177Zm402.482-7.626c-3.312-3-6.731-5.966-10.163-8.805l1.435-1.733c3.457,2.86,6.9,5.845,10.24,8.872ZM422.4,219.06l-1.42-1.744c3.479-2.833,7.075-5.628,10.688-8.306l1.34,1.807C429.418,213.475,425.849,216.248,422.4,219.06Zm361.723-6.869c-3.573-2.691-7.25-5.331-10.927-7.847l1.27-1.856c3.706,2.535,7.41,5.195,11.011,7.906Zm-340.146-9.123-1.256-1.866c3.724-2.506,7.557-4.959,11.395-7.294l1.169,1.922C451.473,198.147,447.669,200.582,443.973,203.068ZM761.915,197c-3.8-2.353-7.706-4.646-11.6-6.818l1.094-1.965c3.928,2.188,7.862,4.5,11.693,6.87Zm-295.009-7.885-1.08-1.974c3.94-2.156,7.979-4.247,12.006-6.217l.989,2.021c-4,1.955-8.005,4.03-11.915,6.17Zm271.5-5.212c-4-1.994-8.1-3.921-12.187-5.726l.91-2.057c4.116,1.819,8.248,3.761,12.282,5.77ZM491,177.333l-.894-2.064c4.117-1.784,8.329-3.5,12.517-5.087l.8,2.1c-4.157,1.579-8.336,3.277-12.422,5.048Zm222.773-4.313c-4.165-1.615-8.428-3.156-12.672-4.58l.716-2.133c4.275,1.435,8.571,2.988,12.768,4.616ZM516.095,167.8l-.7-2.138c4.275-1.4,8.637-2.721,12.964-3.921l.6,2.167c-4.295,1.192-8.623,2.5-12.865,3.892Zm172.17-3.345c-4.291-1.223-8.667-2.362-13.007-3.385l.516-2.189c4.374,1.031,8.783,2.179,13.108,3.411Zm-146.274-3.842-.5-2.193c4.383-1,8.848-1.914,13.269-2.711l.4,2.213c-4.389.792-8.819,1.7-13.169,2.691Zm120.117-2.325c-4.381-.822-8.843-1.554-13.263-2.174l.312-2.228c4.454.626,8.951,1.363,13.366,2.191Zm-93.67-2.448-.3-2.23c4.453-.594,8.982-1.094,13.461-1.484l.2,2.241c-4.445.387-8.938.883-13.359,1.473Zm67.058-1.291c-4.431-.417-8.941-.739-13.407-.955l.11-2.247c4.5.218,9.043.542,13.508.963Zm-40.285-1.045-.094-2.247c4.135-.172,8.348-.26,12.526-.261l1.018,0-.007,2.25-1.012,0c-4.146,0-8.329.089-12.432.26Z" transform="translate(-279.019 -151)" fill="#e6e6e6"/>
    <path id="Path_94" data-name="Path 94" d="M608.349,741.122V618.107a6.508,6.508,0,0,1,6.5-6.5h14.76a6.507,6.507,0,0,1,6.5,6.5V741.122a6.508,6.508,0,0,1-6.5,6.5h-14.76a6.507,6.507,0,0,1-6.5-6.5Z" transform="translate(-279.019 -151)" fill="#2f2e41"/>
    <path id="Path_95" data-name="Path 95" d="M579.156,741.122V618.107a6.508,6.508,0,0,1,6.5-6.5h14.76a6.508,6.508,0,0,1,6.5,6.5V741.122a6.508,6.508,0,0,1-6.5,6.5h-14.76a6.507,6.507,0,0,1-6.5-6.5Z" transform="translate(-279.019 -151)" fill="#2f2e41"/>
    <rect id="Rectangle_16" data-name="Rectangle 16" width="71.759" height="79.506" rx="6" transform="translate(292.734 426.494)" fill="#2f2e41"/>
    <path id="Path_96" data-name="Path 96" d="M507.168,384.226s-30.159,14.01-55.68,23.3c-15.837-35.751-38.653-34.413-38.653-34.413L399,382.639l2.494,14.286-.68,23.356-3.628,12.245,5.206.941,2.941.533.443-.4a30.22,30.22,0,0,0-.881,8.9L535.74,422.1S531.2,401.006,507.168,384.226Z" transform="translate(-279.019 -151)" fill="#e6e6e6"/>
    <rect id="Rectangle_17" data-name="Rectangle 17" width="26.76" height="135.014" rx="6" transform="matrix(-0.594, -0.804, 0.804, -0.594, 201.85, 433.805)" fill="#6c63ff"/>
    <rect id="Rectangle_18" data-name="Rectangle 18" width="26.76" height="135.014" rx="6" transform="matrix(0.883, -0.469, 0.469, 0.883, 339.741, 342.56)" fill="#6c63ff"/>
    <path id="Path_97" data-name="Path 97" d="M673.651,532.053l-21.293,14.116c-3.254,1.727-7.151.754-8.7-2.173l-23.515-44.311c-1.553-2.927-.175-6.7,3.079-8.426l14.493-7.691c3.254-1.727,7.151-.754,8.7,2.173l30.315,37.887C678.283,526.553,676.9,530.326,673.651,532.053Z" transform="translate(-279.019 -151)" fill="#ccc"/>
    <path id="Path_98" data-name="Path 98" d="M528.55,519.072l13.839,18.379a6,6,0,0,0,8.481.269l36.576-34.331a6,6,0,0,0,.269-8.481l-10.1-10.761a6,6,0,0,0-8.481-.268l-40.315,26.714A6,6,0,0,0,528.55,519.072Z" transform="translate(-279.019 -151)" fill="#ccc"/>
    <rect id="Rectangle_19" data-name="Rectangle 19" width="79.062" height="154.476" rx="6" transform="translate(289.083 331.059)" fill="#ccc"/>
    <circle id="Ellipse_24" data-name="Ellipse 24" cx="53.519" cy="53.519" r="53.519" transform="translate(274.703 214.723)" fill="#6c63ff"/>
    <path id="Path_99" data-name="Path 99" d="M613.479,437.111c-3.307-.093-7.422-.208-10.589-2.522a8.131,8.131,0,0,1-3.2-6.073,5.47,5.47,0,0,1,1.86-4.492c1.654-1.4,4.072-1.729,6.678-.961l-2.7-19.727,1.982-.271,3.172,23.19-1.654-.759c-1.917-.881-4.551-1.328-6.187.055a3.514,3.514,0,0,0-1.152,2.895,6.145,6.145,0,0,0,2.381,4.528c2.464,1.8,5.745,2.034,9.466,2.138Z" transform="translate(-279.019 -151)" fill="#2f2e41"/>
    <rect id="Rectangle_20" data-name="Rectangle 20" width="10.771" height="2" transform="translate(305.939 254.037)" fill="#2f2e41"/>
    <rect id="Rectangle_21" data-name="Rectangle 21" width="10.771" height="2" transform="translate(339.939 254.037)" fill="#2f2e41"/>
    <path id="Path_100" data-name="Path 100" d="M571.885,377.419c-8.674-.989-15.392-9.3-16.13-17.733-.878-10.032,4.965-19.56,12.98-25.19,8.382-5.887,18.826-8.346,28.93-8.887a79.51,79.51,0,0,1,54.348,17.914c7.571,6.288,14.643,14.3,17.323,23.974,2.328,8.4.433,17.922-6.325,23.807a15.976,15.976,0,0,1-12.26,3.775c-5.244-.545-10.082-3.3-14.27-6.347-8.147-5.923-14.835-14.175-24.76-17.271-7.278-2.27-16.722-.272-21.169,6.309a11.978,11.978,0,0,0-1.913,5.019,1.553,1.553,0,0,0,1.048,1.845,1.509,1.509,0,0,0,1.845-1.048c1.168-8.289,11.36-11.383,18.513-9.49,10.429,2.76,17.429,12.066,25.985,17.978,4.5,3.109,9.615,5.594,15.132,6.04a18.791,18.791,0,0,0,13.2-4.056c7.31-5.772,10.1-15.7,8.489-24.637-1.872-10.35-8.838-19.221-16.482-26.089a82.447,82.447,0,0,0-56.344-20.814c-10.574.243-21.606,2.426-30.715,8.014-8.836,5.421-15.665,14.49-16.558,25.032-.786,9.279,4.193,18.984,12.738,23.049a19.95,19.95,0,0,0,6.392,1.8c1.915.218,1.9-2.783,0-3Z" transform="translate(-279.019 -151)" fill="#2f2e41"/>
    <path id="Path_101" data-name="Path 101" d="M405.238,432.186l6.349-2.041c.68-1.3-.565-.467.029-1.735,16.064-34.271,1.218-55.3,1.218-55.3l-11.485,7.908c-.028-.065-.051-.132-.08-.2,0,0-2.041-4.535-5.215-1.134,0,0,9.977,24.264-1.134,54.423l12.925,5.9,4.989-5.9.113-.567-8.928-.812Z" transform="translate(-279.019 -151)" fill="#ccc"/>
    <path id="Path_102" data-name="Path 102" d="M586.307,559.512c-51.021-11.338-98.528,12.132-98.528,12.132l-.129-.116-18.919-16.891L394.807,434l18.027.113c50.114-29.932,120.637-25.851,120.637-25.851C563.858,442.73,586.307,559.512,586.307,559.512Z" transform="translate(-279.019 -151)" fill="#3f3d56"/>
    <path id="Path_103" data-name="Path 103" d="M487.65,571.529l-18.919-16.892L394.807,434l18.027.113S484.686,529.011,487.65,571.529Z" transform="translate(-279.019 -151)" opacity="0.1"/>
    <ellipse id="Ellipse_25" data-name="Ellipse 25" cx="29.252" cy="18.594" rx="29.252" ry="18.594" transform="translate(178.065 299.423) rotate(-17.052)" fill="#6c63ff"/>
    <path id="Path_104" data-name="Path 104" d="M338.03,375.508C333.956,390.567,320,399.894,320,399.894s-7.349-15.089-3.275-30.149,18.028-24.386,18.028-24.386S342.1,360.449,338.03,375.508Z" transform="translate(-279.019 -151)" fill="#ccc"/>
    <path id="Path_105" data-name="Path 105" d="M300.97,375.508C305.044,390.567,319,399.894,319,399.894s7.349-15.089,3.275-30.149-18.027-24.386-18.027-24.386S296.9,360.449,300.97,375.508Z" transform="translate(-279.019 -151)" fill="#ccc"/>
    <path id="Path_106" data-name="Path 106" d="M306.956,372.271c11.179,10.882,12.544,27.61,12.544,27.61s-16.759-.915-27.937-11.8-12.544-27.61-12.544-27.61S295.777,361.389,306.956,372.271Z" transform="translate(-279.019 -151)" fill="#3f3d56"/>
    <path id="Path_107" data-name="Path 107" d="M332.044,372.271c-11.179,10.882-12.544,27.61-12.544,27.61s16.759-.915,27.937-11.8,12.544-27.61,12.544-27.61S343.223,361.389,332.044,372.271Z" transform="translate(-279.019 -151)" fill="#3f3d56"/>
    <path id="Path_108" data-name="Path 108" d="M899.03,545.508C894.956,560.567,881,569.894,881,569.894s-7.349-15.089-3.275-30.149,18.028-24.386,18.028-24.386S903.1,530.449,899.03,545.508Z" transform="translate(-279.019 -151)" fill="#ccc"/>
    <path id="Path_109" data-name="Path 109" d="M861.97,545.508C866.044,560.567,880,569.894,880,569.894s7.349-15.089,3.275-30.149-18.028-24.386-18.028-24.386S857.9,530.449,861.97,545.508Z" transform="translate(-279.019 -151)" fill="#ccc"/>
    <path id="Path_110" data-name="Path 110" d="M867.956,542.271c11.179,10.882,12.544,27.61,12.544,27.61s-16.759-.915-27.937-11.8-12.544-27.61-12.544-27.61S856.777,531.389,867.956,542.271Z" transform="translate(-279.019 -151)" fill="#3f3d56"/>
    <path id="Path_111" data-name="Path 111" d="M893.044,542.271c-11.179,10.882-12.544,27.61-12.544,27.61s16.759-.915,27.937-11.8,12.544-27.61,12.544-27.61S904.223,531.389,893.044,542.271Z" transform="translate(-279.019 -151)" fill="#3f3d56"/>
    <rect id="Rectangle_22" data-name="Rectangle 22" width="232" height="2" transform="translate(213.963 596)" fill="#3f3d56"/>
  </g>
  <text id="You_have_no_books" data-name="You have no books" transform="translate(1)" fill="#6c63ff" font-size="70" font-family="SegoeUI, Segoe UI"><tspan x="0" y="76">You have no books</tspan></text>
</svg>
